Coordinates
version=1
nRows=29
nColumns=22
inDegrees=yes

Units are S.I. units (second, meters, Newtons, ...)
If the header above contains a line with 'inDegrees', this indicates whether rotational values are in degrees (yes) or radians (no).

endheader
time	pelvis_tilt	pelvis_list	pelvis_rotation	pelvis_tx	pelvis_ty	pelvis_tz	hip_flexion_r	hip_adduction_r	hip_rotation_r	knee_angle_r	ankle_angle_r	subtalar_angle_r	hip_flexion_l	hip_adduction_l	hip_rotation_l	knee_angle_l	ankle_angle_l	subtalar_angle_l	lumbar_extension	lumbar_bending	lumbar_rotation
      6.43000000	     -3.81005388	      0.34981417	    256.19110689	     -0.41517721	      1.00456512	     -0.05425986	     23.32724949	      2.17320727	     10.73734578	    -16.13519940	      7.45502803	     13.52423555	      1.40739834	      5.05420650	      8.96429873	    -18.23305077	     16.35480286	    -11.11146507	    -13.94622292	      4.97952046	      0.46382394
      6.44000000	     -3.79237693	      0.23649216	    256.86910239	     -0.41713322	      1.00400118	     -0.04832593	     23.19130808	      2.32142167	     11.13056861	    -15.00866295	      7.34526091	     14.23779821	      0.92079599	      5.00101176	      9.51027772	    -18.25534114	     16.69571276	    -10.94356497	    -14.00627809	      4.91831380	      0.50902131
      6.45000000	     -3.76198423	      0.14087821	    257.58272352	     -0.41904128	      1.00333832	     -0.04224080	     23.08270156	      2.43796477	     11.41075124	    -14.05266824	      7.27780692	     14.70022583	      0.47514922	      4.95261475	     10.07918377	    -18.32804673	     17.03784245	    -10.79306087	    -14.02575362	      4.86012772	      0.49607336
      6.46000000	     -3.70102832	      0.08627247	    258.31032103	     -0.42092912	      1.00253253	     -0.03605793	     23.05758799	      2.52681871	     11.56301626	    -13.31977014	      7.21481428	     14.94093307	      0.09726512	      4.92679022	     10.68272689	    -18.44615143	     17.39416392	    -10.67627204	    -13.98376258	      4.77953229	      0.48006222
      6.47000000	     -3.63293060	      0.02719047	    259.04847084	     -0.42278308	      1.00167097	     -0.02973713	     23.05202383	      2.60384159	     11.59715568	    -12.80838744	      7.22953471	     15.11481801	     -0.26624332	      4.90860741	     11.27739766	    -18.61364504	     17.74702496	    -10.55751413	    -13.93104496	      4.69766744	      0.44188669
      6.48000000	     -3.56163691	     -0.01550523	    259.79266652	     -0.42459573	      1.00073232	     -0.02333336	     23.09225334	      2.68377304	     11.52180434	    -12.52603940	      7.25926705	     15.21772646	     -0.58520613	      4.89316083	     11.86581955	    -18.84257233	     18.09013854	    -10.44870245	    -13.85689233	      4.62109647	      0.40260782
      6.49000000	     -3.49335526	     -0.03585018	    260.53709974	     -0.42637496	      0.99971748	     -0.01685808	     23.17691870	      2.77810567	     11.38547059	    -12.46096891	      7.27567713	     15.25576663	     -0.85956894	      4.87419847	     12.44324504	    -19.12350538	     18.43413575	    -10.36089481	    -13.75709916	      4.55728399	      0.36344363
      6.50000000	     -3.43531890	     -0.03802458	    261.28007855	     -0.42812182	      0.99864998	     -0.01029127	     23.28790291	      2.89324000	     11.23624678	    -12.59102116	      7.25241077	     15.24071416	     -1.09947973	      4.84531279	     12.99454535	    -19.44959827	     18.77399333	    -10.29219554	    -13.63214854	      4.51317897	      0.33163068
      6.51000000	     -3.40474320	     -0.03704904	    262.01474984	     -0.42986637	      0.99757209	     -0.00362076	     23.39726663	      3.04877097	     11.14595464	    -12.89680375	      7.15844149	     15.18300657	     -1.33386518	      4.78737438	     13.50649138	    -19.80262264	     19.11320674	    -10.25329804	    -13.50187372	      4.50629794	      0.30378284
      6.52000000	     -3.40351371	     -0.03571075	    262.75536495	     -0.43158924	      0.99650405	      0.00316055	     23.48872976	      3.23774652	     11.12618058	    -13.34225581	      6.96982878	     15.07642528	     -1.56133976	      4.69894444	     13.98825513	    -20.19063604	     19.42870495	    -10.23649613	    -13.36636797	      4.53797164	      0.29252079
      6.53000000	     -3.43413580	     -0.04356271	    263.48619176	     -0.43332375	      0.99547458	      0.01005934	     23.55061280	      3.46887389	     11.23530300	    -13.91240467	      6.66464734	     14.93935532	     -1.80688584	      4.57334297	     14.42672039	    -20.58244579	     19.73327512	    -10.24379169	    -13.23440471	      4.60804135	      0.29743054
      6.54000000	     -3.49484262	     -0.05744176	    264.21219782	     -0.43504746	      0.99448956	      0.01706338	     23.58561668	      3.73551772	     11.45611182	    -14.58170950	      6.24053910	     14.75480074	     -2.05905300	      4.41323168	     14.83144075	    -20.99107911	     20.00615220	    -10.27311831	    -13.10118042	      4.71565052	      0.32394090
      6.55000000	     -3.57423048	     -0.07807703	    264.91428529	     -0.43678437	      0.99356380	      0.02416068	     23.60494914	      4.03126277	     11.78885724	    -15.34496279	      5.70334043	     14.55118597	     -2.32551336	      4.22881407	     15.19711041	    -21.39606604	     20.25727179	    -10.31612842	    -12.96676793	      4.84385590	      0.38055235
      6.56000000	     -3.67152097	     -0.10049552	    265.59468646	     -0.43848614	      0.99271176	      0.03133681	     23.62024355	      4.34458118	     12.17694869	    -16.18451990	      5.08418603	     14.33017460	     -2.59037071	      4.02378633	     15.52657995	    -21.81302385	     20.47288843	    -10.36203940	    -12.82642894	      5.00139319	      0.46771243
      6.57000000	     -3.77898042	     -0.12402065	    266.24572989	     -0.44013731	      0.99195281	      0.03857244	     23.64534107	      4.66108476	     12.55552029	    -17.09288613	      4.43502819	     14.09518622	     -2.84574599	      3.81049291	     15.82227055	    -22.25223851	     20.64548109	    -10.39304127	    -12.68139475	      5.18034760	      0.59475719
      6.58000000	     -3.89472943	     -0.15024880	    266.86711494	     -0.44171809	      0.99132448	      0.04586338	     23.67735895	      4.96685788	     12.86387596	    -18.04347653	      3.81063742	     13.87882563	     -3.08875961	      3.59258725	     16.08198725	    -22.71759447	     20.75973039	    -10.38703887	    -12.53456965	      5.37900220	      0.74644099
      6.59000000	     -4.02179275	     -0.18893775	    267.45706039	     -0.44323577	      0.99086912	      0.05320489	     23.69946710	      5.25569682	     13.04413386	    -19.00518113	      3.25213980	     13.69239489	     -3.32030889	      3.36930541	     16.29864987	    -23.22697675	     20.80391350	    -10.34447567	    -12.39744497	      5.59799885	      0.91631978
      6.60000000	     -4.15088909	     -0.22219675	    268.02141652	     -0.44464845	      0.99055753	      0.06058197	     23.72445586	      5.50756641	     13.03719529	    -19.95449677	      2.83889411	     13.26173619	     -3.50299664	      3.15826979	     16.48206173	    -23.81364311	     20.77997622	    -10.17732436	    -12.24961129	      5.83015639	      1.13979242
      6.61000000	     -4.29498114	     -0.28806861	    268.56389520	     -0.44596388	      0.99048980	      0.06797701	     23.67936391	      5.72781824	     12.87217173	    -20.82859881	      2.52750133	     12.88106909	     -3.67309571	      2.94055018	     16.59745557	    -24.47742280	     20.65713964	     -9.95575994	    -12.14384361	      6.09077859	      1.37095732
      6.62000000	     -4.45965632	     -0.36764920	    269.09412604	     -0.44718516	      0.99063897	      0.07537739	     23.56492485	      5.92278891	     12.54999655	    -21.59331623	      2.35109230	     12.45026012	     -3.79816830	      2.71221632	     16.66612732	    -25.23909807	     20.44287044	     -9.65862080	    -12.05415753	      6.38165439	      1.61496601
      6.63000000	     -4.63396163	     -0.46099631	    269.61277690	     -0.44832674	      0.99100266	      0.08274457	     23.36647753	      6.09025605	     12.11731013	    -22.22418904	      2.31592558	     11.94072992	     -3.86107398	      2.48209260	     16.65958154	    -26.11940051	     20.10816662	     -9.26271145	    -11.98584163	      6.68710653	      1.86423923
      6.64000000	     -4.82218987	     -0.56168261	    270.12944481	     -0.44940397	      0.99156410	      0.09005011	     23.08171401	      6.24171265	     11.60406943	    -22.70470683	      2.40031873	     11.40341219	     -3.84620776	      2.24305179	     16.59050500	    -27.12792892	     19.65151639	     -8.79486433	    -11.93296769	      7.00665567	      2.11031159
      6.65000000	     -5.02201895	     -0.66307600	    270.65484570	     -0.45040951	      0.99229977	      0.09726248	     22.71616926	      6.38052914	     11.03616455	    -23.03074569	      2.57859429	     10.86123676	     -3.73388526	      1.99575350	     16.45987016	    -28.27823922	     19.06163411	     -8.26204374	    -11.89023638	      7.33585124	      2.34080382
      6.66000000	     -5.22015328	     -0.75323666	    271.18443023	     -0.45136392	      0.99317726	      0.10437189	     22.28057107	      6.50479848	     10.45997015	    -23.19883209	      2.83868765	     10.30713772	     -3.50874166	      1.75013661	     16.25254991	    -29.56590886	     18.30665101	     -7.63430769	    -11.84238626	      7.65385057	      2.57472037
      6.67000000	     -5.41747713	     -0.83908338	    271.74668828	     -0.45223025	      0.99416419	      0.11131471	     21.79419140	      6.61127293	      9.84101082	    -23.24704155	      3.11630124	      9.81869556	     -3.16029185	      1.50073227	     15.97809161	    -31.00920183	     17.42499244	     -6.98776000	    -11.80385025	      7.96327580	      2.76174365
      6.68000000	     -5.60213297	     -0.90599405	    272.31862386	     -0.45303766	      0.99520776	      0.11808664	     21.28337504	      6.71015074	      9.26767106	    -23.20127896	      3.42097140	      9.32563990	     -2.68200814	      1.26145143	     15.62934881	    -32.58931883	     16.37941951	     -6.23730829	    -11.76065631	      8.24912533	      2.94050658
      6.69000000	     -5.77460620	     -0.96325035	    272.93391246	     -0.45375226	      0.99629572	      0.12467525	     20.74221147	      6.78608821	      8.66816191	    -23.05511731	      3.69644365	      8.88889055	     -2.07417831	      1.01523429	     15.19020907	    -34.30338321	     15.23142320	     -5.49378679	    -11.71890809	      8.51055694	      3.05911276
      6.70000000	     -5.91426590	     -1.00534763	    273.54521053	     -0.45444187	      0.99737171	      0.13106629	     20.21423082	      6.85041396	      8.14307919	    -22.89146407	      3.99433758	      8.40876951	     -1.35232454	      0.78655946	     14.65058551	    -36.11547787	     13.97409292	     -4.61746519	    -11.68346998	      8.71954092	      3.20693010
      6.71000000	     -6.03978336	     -1.04933730	    274.19516604	     -0.45506279	      0.99843973	      0.13728065	     19.67564493	      6.90226156	      7.61486935	    -22.68775784	      4.25570685	      7.95687370	     -0.53199605	      0.53409971	     14.00985505	    -38.01204724	     12.69840508	     -3.76375299	    -11.66437468	      8.90164490	      3.30517831
